<svg xmlns="http://www.w3.org/2000/svg" xmlns:xlink="http://www.w3.org/1999/xlink" version="1.1" width="256" height="256" viewBox="0 0 256 256" xml:space="preserve">
<g style="stroke: none; stroke-width: 0; stroke-dasharray: none; stroke-linecap: butt; stroke-linejoin: miter; stroke-miterlimit: 10; fill: none; fill-rule: nonzero; opacity: 1;" transform="translate(1.4065934065934016 1.4065934065934016) scale(2.81 2.81)">
	<rect x="4.45" y="14.82" rx="0" ry="0" width="76.08" height="39.12" style="stroke: none; stroke-width: 1; stroke-dasharray: none; stroke-linecap: butt; stroke-linejoin: miter; stroke-miterlimit: 10; fill: rgb(52,125,42); fill-rule: nonzero; opacity: 1;" transform=" matrix(1 0 0 1 0 0) "/>
	<rect x="9.19" y="19.56" rx="0" ry="0" width="76.08" height="39.12" style="stroke: none; stroke-width: 1; stroke-dasharray: none; stroke-linecap: butt; stroke-linejoin: miter; stroke-miterlimit: 10; fill: rgb(61,141,50); fill-rule: nonzero; opacity: 1;" transform=" matrix(1 0 0 1 0 0) "/>
	<rect x="13.92" y="24.3" rx="0" ry="0" width="76.08" height="39.12" style="stroke: none; stroke-width: 1; stroke-dasharray: none; stroke-linecap: butt; stroke-linejoin: miter; stroke-miterlimit: 10; fill: rgb(68,155,56); fill-rule: nonzero; opacity: 1;" transform=" matrix(1 0 0 1 0 0) "/>
	<path d="M 77.809 29.953 H 26.123 c 0 3.613 -2.929 6.542 -6.542 6.542 v 14.719 c 3.613 0 6.542 2.929 6.542 6.542 h 51.686 c -0.002 -0.066 -0.01 -0.129 -0.01 -0.195 c 0 -3.613 2.929 -6.542 6.542 -6.542 V 36.3 C 80.794 36.3 77.914 33.475 77.809 29.953 z" style="stroke: none; stroke-width: 1; stroke-dasharray: none; stroke-linecap: butt; stroke-linejoin: miter; stroke-miterlimit: 10; fill: rgb(98,199,81); fill-rule: nonzero; opacity: 1;" transform=" matrix(1 0 0 1 0 0) " stroke-linecap="round"/>
	<circle cx="51.965" cy="43.855000000000004" r="11.645" style="stroke: none; stroke-width: 1; stroke-dasharray: none; stroke-linecap: butt; stroke-linejoin: miter; stroke-miterlimit: 10; fill: rgb(68,155,56); fill-rule: nonzero; opacity: 1;" transform="  matrix(1 0 0 1 0 0) "/>
	<circle cx="33.969" cy="43.859" r="2.329" style="stroke: none; stroke-width: 1; stroke-dasharray: none; stroke-linecap: butt; stroke-linejoin: miter; stroke-miterlimit: 10; fill: rgb(68,155,56); fill-rule: nonzero; opacity: 1;" transform="  matrix(1 0 0 1 0 0) "/>
	<circle cx="69.949" cy="43.859" r="2.329" style="stroke: none; stroke-width: 1; stroke-dasharray: none; stroke-linecap: butt; stroke-linejoin: miter; stroke-miterlimit: 10; fill: rgb(68,155,56); fill-rule: nonzero; opacity: 1;" transform="  matrix(1 0 0 1 0 0) "/>
	<path d="M 51.869 49.981 c -1.774 0 -3.342 -0.94 -3.994 -2.395 l 2.315 -1.037 c 0.236 0.527 0.927 0.896 1.679 0.896 c 0.753 0 1.444 -0.368 1.68 -0.896 c 0.075 -0.184 0.097 -0.348 0.05 -0.447 c -0.073 -0.154 -0.414 -0.561 -1.999 -1.033 c -1.319 -0.393 -2.916 -1.018 -3.562 -2.369 c -0.254 -0.531 -0.459 -1.403 0.006 -2.54 c 0.667 -1.492 2.235 -2.433 4.01 -2.433 c 1.774 0 3.342 0.94 3.995 2.395 l -2.315 1.038 c -0.236 -0.528 -0.927 -0.897 -1.68 -0.897 c -0.753 0 -1.443 0.369 -1.679 0.896 c -0.075 0.184 -0.097 0.347 -0.049 0.447 c 0.073 0.153 0.414 0.56 1.999 1.033 c 1.319 0.393 2.916 1.018 3.562 2.368 c 0.254 0.532 0.459 1.403 -0.007 2.54 C 55.211 49.041 53.644 49.981 51.869 49.981 z" style="stroke: none; stroke-width: 1; stroke-dasharray: none; stroke-linecap: butt; stroke-linejoin: miter; stroke-miterlimit: 10; fill: rgb(98,199,81); fill-rule: nonzero; opacity: 1;" transform=" matrix(1 0 0 1 0 0) " stroke-linecap="round"/>
	<rect x="50.6" y="48.71" rx="0" ry="0" width="2.54" height="2.94" style="stroke: none; stroke-width: 1; stroke-dasharray: none; stroke-linecap: butt; stroke-linejoin: miter; stroke-miterlimit: 10; fill: rgb(98,199,81); fill-rule: nonzero; opacity: 1;" transform=" matrix(1 0 0 1 0 0) "/>
	<rect x="50.6" y="36.06" rx="0" ry="0" width="2.54" height="2.94" style="stroke: none; stroke-width: 1; stroke-dasharray: none; stroke-linecap: butt; stroke-linejoin: miter; stroke-miterlimit: 10; fill: rgb(98,199,81); fill-rule: nonzero; opacity: 1;" transform=" matrix(1 0 0 1 0 0) "/>
	<circle cx="21.217999999999996" cy="31.518" r="1.638" style="stroke: none; stroke-width: 1; stroke-dasharray: none; stroke-linecap: butt; stroke-linejoin: miter; stroke-miterlimit: 10; fill: rgb(98,199,81); fill-rule: nonzero; opacity: 1;" transform="  matrix(1 0 0 1 0 0) "/>
	<circle cx="21.217999999999996" cy="56.117999999999995" r="1.638" style="stroke: none; stroke-width: 1; stroke-dasharray: none; stroke-linecap: butt; stroke-linejoin: miter; stroke-miterlimit: 10; fill: rgb(98,199,81); fill-rule: nonzero; opacity: 1;" transform="  matrix(1 0 0 1 0 0) "/>
	<circle cx="82.69800000000001" cy="31.558" r="1.638" style="stroke: none; stroke-width: 1; stroke-dasharray: none; stroke-linecap: butt; stroke-linejoin: miter; stroke-miterlimit: 10; fill: rgb(98,199,81); fill-rule: nonzero; opacity: 1;" transform="  matrix(1 0 0 1 0 0) "/>
	<circle cx="82.69800000000001" cy="56.158" r="1.638" style="stroke: none; stroke-width: 1; stroke-dasharray: none; stroke-linecap: butt; stroke-linejoin: miter; stroke-miterlimit: 10; fill: rgb(98,199,81); fill-rule: nonzero; opacity: 1;" transform="  matrix(1 0 0 1 0 0) "/>
	<rect x="0" y="65.71" rx="0" ry="0" width="19.63" height="3.27" style="stroke: none; stroke-width: 1; stroke-dasharray: none; stroke-linecap: butt; stroke-linejoin: miter; stroke-miterlimit: 10; fill: rgb(234,176,40); fill-rule: nonzero; opacity: 1;" transform=" matrix(1 0 0 1 0 0) "/>
	<rect x="0" y="62.45" rx="0" ry="0" width="19.63" height="3.27" style="stroke: none; stroke-width: 1; stroke-dasharray: none; stroke-linecap: butt; stroke-linejoin: miter; stroke-miterlimit: 10; fill: rgb(255,195,54); fill-rule: nonzero; opacity: 1;" transform=" matrix(1 0 0 1 0 0) "/>
	<rect x="0" y="59.18" rx="0" ry="0" width="19.63" height="3.27" style="stroke: none; stroke-width: 1; stroke-dasharray: none; stroke-linecap: butt; stroke-linejoin: miter; stroke-miterlimit: 10; fill: rgb(234,176,40); fill-rule: nonzero; opacity: 1;" transform=" matrix(1 0 0 1 0 0) "/>
	<rect x="0" y="55.92" rx="0" ry="0" width="19.63" height="3.27" style="stroke: none; stroke-width: 1; stroke-dasharray: none; stroke-linecap: butt; stroke-linejoin: miter; stroke-miterlimit: 10; fill: rgb(255,195,54); fill-rule: nonzero; opacity: 1;" transform=" matrix(1 0 0 1 0 0) "/>
	<rect x="0" y="52.65" rx="0" ry="0" width="19.63" height="3.27" style="stroke: none; stroke-width: 1; stroke-dasharray: none; stroke-linecap: butt; stroke-linejoin: miter; stroke-miterlimit: 10; fill: rgb(234,176,40); fill-rule: nonzero; opacity: 1;" transform=" matrix(1 0 0 1 0 0) "/>
	<rect x="0" y="49.39" rx="0" ry="0" width="19.63" height="3.27" style="stroke: none; stroke-width: 1; stroke-dasharray: none; stroke-linecap: butt; stroke-linejoin: miter; stroke-miterlimit: 10; fill: rgb(255,195,54); fill-rule: nonzero; opacity: 1;" transform=" matrix(1 0 0 1 0 0) "/>
	<rect x="0" y="46.12" rx="0" ry="0" width="19.63" height="3.27" style="stroke: none; stroke-width: 1; stroke-dasharray: none; stroke-linecap: butt; stroke-linejoin: miter; stroke-miterlimit: 10; fill: rgb(234,176,40); fill-rule: nonzero; opacity: 1;" transform=" matrix(1 0 0 1 0 0) "/>
	<rect x="0" y="42.86" rx="0" ry="0" width="19.63" height="3.27" style="stroke: none; stroke-width: 1; stroke-dasharray: none; stroke-linecap: butt; stroke-linejoin: miter; stroke-miterlimit: 10; fill: rgb(255,195,54); fill-rule: nonzero; opacity: 1;" transform=" matrix(1 0 0 1 0 0) "/>
	<rect x="0" y="39.66" rx="0" ry="0" width="19.63" height="3.27" style="stroke: none; stroke-width: 1; stroke-dasharray: none; stroke-linecap: butt; stroke-linejoin: miter; stroke-miterlimit: 10; fill: rgb(234,176,40); fill-rule: nonzero; opacity: 1;" transform=" matrix(1 0 0 1 0 0) "/>
	<rect x="0" y="36.39" rx="0" ry="0" width="19.63" height="3.27" style="stroke: none; stroke-width: 1; stroke-dasharray: none; stroke-linecap: butt; stroke-linejoin: miter; stroke-miterlimit: 10; fill: rgb(255,195,54); fill-rule: nonzero; opacity: 1;" transform=" matrix(1 0 0 1 0 0) "/>
	<rect x="0" y="33.13" rx="0" ry="0" width="19.63" height="3.27" style="stroke: none; stroke-width: 1; stroke-dasharray: none; stroke-linecap: butt; stroke-linejoin: miter; stroke-miterlimit: 10; fill: rgb(234,176,40); fill-rule: nonzero; opacity: 1;" transform=" matrix(1 0 0 1 0 0) "/>
	<rect x="0" y="29.86" rx="0" ry="0" width="19.63" height="3.27" style="stroke: none; stroke-width: 1; stroke-dasharray: none; stroke-linecap: butt; stroke-linejoin: miter; stroke-miterlimit: 10; fill: rgb(255,195,54); fill-rule: nonzero; opacity: 1;" transform=" matrix(1 0 0 1 0 0) "/>
	<circle cx="26.017" cy="59.257" r="9.927" style="stroke: none; stroke-width: 1; stroke-dasharray: none; stroke-linecap: butt; stroke-linejoin: miter; stroke-miterlimit: 10; fill: rgb(234,176,40); fill-rule: nonzero; opacity: 1;" transform="  matrix(1 0 0 1 0 0) "/>
	<circle cx="26.024" cy="59.263999999999996" r="8.044" style="stroke: none; stroke-width: 1; stroke-dasharray: none; stroke-linecap: butt; stroke-linejoin: miter; stroke-miterlimit: 10; fill: rgb(255,195,54); fill-rule: nonzero; opacity: 1;" transform="  matrix(1 0 0 1 0 0) "/>
	<path d="M 25.958 63.491 c -1.226 0 -2.309 -0.65 -2.759 -1.654 l 1.599 -0.716 c 0.163 0.364 0.64 0.619 1.16 0.619 c 0.52 0 0.997 -0.254 1.16 -0.619 c 0.052 -0.127 0.067 -0.24 0.034 -0.308 c -0.051 -0.106 -0.286 -0.387 -1.381 -0.713 c -0.911 -0.272 -2.014 -0.703 -2.46 -1.636 c -0.176 -0.367 -0.317 -0.969 0.004 -1.754 c 0.461 -1.031 1.544 -1.681 2.77 -1.681 c 1.225 0 2.308 0.649 2.759 1.655 l -1.599 0.717 c -0.163 -0.365 -0.641 -0.62 -1.16 -0.62 c -0.52 0 -0.997 0.255 -1.16 0.619 c -0.052 0.127 -0.067 0.24 -0.034 0.308 c 0.05 0.106 0.286 0.387 1.381 0.713 c 0.911 0.272 2.015 0.703 2.461 1.636 c 0.176 0.367 0.317 0.969 -0.005 1.755 C 28.267 62.841 27.184 63.491 25.958 63.491 z" style="stroke: none; stroke-width: 1; stroke-dasharray: none; stroke-linecap: butt; stroke-linejoin: miter; stroke-miterlimit: 10; fill: rgb(200,147,24); fill-rule: nonzero; opacity: 1;" transform=" matrix(1 0 0 1 0 0) " stroke-linecap="round"/>
	<rect x="25.08" y="62.62" rx="0" ry="0" width="1.75" height="2.03" style="stroke: none; stroke-width: 1; stroke-dasharray: none; stroke-linecap: butt; stroke-linejoin: miter; stroke-miterlimit: 10; fill: rgb(200,147,24); fill-rule: nonzero; opacity: 1;" transform=" matrix(1 0 0 1 0 0) "/>
	<rect x="25.08" y="53.88" rx="0" ry="0" width="1.75" height="2.03" style="stroke: none; stroke-width: 1; stroke-dasharray: none; stroke-linecap: butt; stroke-linejoin: miter; stroke-miterlimit: 10; fill: rgb(200,147,24); fill-rule: nonzero; opacity: 1;" transform=" matrix(1 0 0 1 0 0) "/>
	<circle cx="16.037" cy="65.257" r="9.927" style="stroke: none; stroke-width: 1; stroke-dasharray: none; stroke-linecap: butt; stroke-linejoin: miter; stroke-miterlimit: 10; fill: rgb(234,176,40); fill-rule: nonzero; opacity: 1;" transform="  matrix(1 0 0 1 0 0) "/>
	<circle cx="16.034" cy="65.254" r="8.044" style="stroke: none; stroke-width: 1; stroke-dasharray: none; stroke-linecap: butt; stroke-linejoin: miter; stroke-miterlimit: 10; fill: rgb(255,195,54); fill-rule: nonzero; opacity: 1;" transform="  matrix(1 0 0 1 0 0) "/>
	<path d="M 15.968 69.486 c -1.226 0 -2.309 -0.649 -2.759 -1.654 l 1.599 -0.716 c 0.163 0.364 0.64 0.619 1.16 0.619 s 0.997 -0.254 1.16 -0.619 c 0.052 -0.127 0.067 -0.24 0.034 -0.308 c -0.051 -0.106 -0.286 -0.387 -1.381 -0.713 c -0.911 -0.272 -2.014 -0.703 -2.46 -1.636 c -0.176 -0.367 -0.317 -0.969 0.004 -1.754 c 0.461 -1.031 1.544 -1.681 2.77 -1.681 c 1.225 0 2.308 0.649 2.759 1.655 l -1.599 0.717 c -0.163 -0.365 -0.641 -0.62 -1.16 -0.62 c -0.52 0 -0.997 0.255 -1.16 0.619 c -0.052 0.127 -0.067 0.24 -0.034 0.308 c 0.05 0.106 0.286 0.387 1.381 0.713 c 0.911 0.272 2.015 0.703 2.461 1.636 c 0.176 0.367 0.317 0.969 -0.005 1.755 C 18.277 68.836 17.194 69.486 15.968 69.486 z" style="stroke: none; stroke-width: 1; stroke-dasharray: none; stroke-linecap: butt; stroke-linejoin: miter; stroke-miterlimit: 10; fill: rgb(200,147,24); fill-rule: nonzero; opacity: 1;" transform=" matrix(1 0 0 1 0 0) " stroke-linecap="round"/>
	<rect x="15.09" y="68.61" rx="0" ry="0" width="1.75" height="2.03" style="stroke: none; stroke-width: 1; stroke-dasharray: none; stroke-linecap: butt; stroke-linejoin: miter; stroke-miterlimit: 10; fill: rgb(200,147,24); fill-rule: nonzero; opacity: 1;" transform=" matrix(1 0 0 1 0 0) "/>
	<rect x="15.09" y="59.87" rx="0" ry="0" width="1.75" height="2.03" style="stroke: none; stroke-width: 1; stroke-dasharray: none; stroke-linecap: butt; stroke-linejoin: miter; stroke-miterlimit: 10; fill: rgb(200,147,24); fill-rule: nonzero; opacity: 1;" transform=" matrix(1 0 0 1 0 0) "/>
</g>
</svg>